<?xml version="1.0"?>
<svg xmlns="http://www.w3.org/2000/svg" xmlns:xlink="http://www.w3.org/1999/xlink" version="1.1" id="Layer_1" x="0px" y="0px" width="100%" viewBox="0 0 500 500" enable-background="new 0 0 500 500" xml:space="preserve" style="background-color:transparent;">
<path fill="#000000" opacity="1.000000" stroke="none" d=" M467.000000,501.000000   C311.333374,501.000000 156.166748,501.000000 1.000083,501.000000   C1.000056,334.333405 1.000056,167.666824 1.000028,1.000173   C167.666550,1.000115 334.333099,1.000115 500.999756,1.000058   C500.999817,167.666519 500.999817,334.333038 500.999908,500.999756   C489.833344,501.000000 478.666656,501.000000 467.000000,501.000000  M188.008301,283.476898   C188.706085,283.467926 189.403885,283.458923 190.250412,284.341187   C191.357132,284.543976 192.468506,284.724457 193.569824,284.953186   C200.753738,286.445160 208.097580,282.299591 215.287811,285.489655   C215.495987,285.582062 216.490494,283.902130 217.704498,282.978516   C218.089355,282.899261 218.474213,282.820007 219.515930,283.173401   C221.371674,283.080505 223.227417,282.987579 225.992920,282.986694   C229.611450,282.986694 233.229996,282.986694 236.483337,282.986694   C236.483337,276.065552 236.483337,269.695038 236.483337,262.894165   C238.670822,262.894165 240.804688,262.894165 243.537949,263.238159   C248.116013,269.206970 252.694092,275.175751 257.483185,281.842651   C262.162415,286.365204 267.749207,282.711609 272.765472,284.197723   C273.000183,283.572357 273.234894,282.946960 273.469635,282.321594   C271.968567,281.588593 270.467529,280.855591 268.882324,279.413239   C264.544617,274.584747 260.206940,269.756287 255.993958,264.166870   C256.053864,259.218903 260.938660,258.711823 263.590485,256.301575   C270.639862,249.894394 270.656281,239.070679 262.475311,232.819107   C259.045532,228.128952 254.252686,227.363052 248.012848,227.999725   C242.699341,228.040192 237.385818,228.080658 231.369888,227.773804   C227.141922,225.061981 222.791168,225.784317 217.821228,226.736023   C223.105621,231.876877 223.100952,231.876877 223.092178,239.586990   C223.080124,250.191849 223.379669,260.811188 222.875809,271.392395   C222.732361,274.405090 220.263229,277.307068 218.279388,279.746033   C218.848053,276.367126 219.416718,272.988190 219.907791,270.070374   C218.346863,270.070374 217.134430,270.070374 216.187408,269.459778   C215.756165,268.615601 215.324921,267.771393 214.893692,266.927216   C214.169281,267.350708 212.997314,267.620148 212.790283,268.221680   C210.901688,273.708740 206.844452,276.942169 200.905914,279.094177   C196.329590,279.094177 191.753281,279.094177 186.920151,279.094177   C186.920151,272.827271 186.819870,267.299286 186.962845,261.777588   C187.033401,259.052795 188.516342,257.808472 191.487869,257.999115   C194.952087,258.221344 198.449646,257.923798 202.520004,258.162994   C203.637238,259.113007 204.754486,260.063019 206.267395,261.581024   C207.488480,262.537628 208.709579,263.494202 210.472717,264.875458   C211.528793,258.213379 210.574600,252.406693 206.860184,246.628525   C206.569351,246.748825 206.278519,246.869125 205.505325,247.339508   C205.453827,247.921112 205.402328,248.502731 204.628693,249.221878   C202.357101,250.644180 200.085495,252.066483 196.940826,253.288132   C193.607834,253.209488 190.274826,253.130844 186.968597,252.106262   C187.313095,245.314484 187.657593,238.522705 188.836594,231.657242   C193.517563,231.394363 198.198517,231.131485 203.553268,231.130432   C207.835846,234.696945 212.118423,238.263443 216.401001,241.829956   C216.869995,238.232864 217.140488,234.693527 215.589569,232.369843   C214.003525,229.993515 213.163803,225.967392 208.278992,225.987900   C207.553757,225.776855 206.823929,225.368088 206.103973,225.384750   C197.103683,225.593079 188.104843,225.863068 178.222351,226.040329   C175.593887,226.040329 172.965439,226.040329 170.336975,226.040329   C170.195694,226.574234 170.054413,227.108124 169.913132,227.642029   C174.586075,228.174164 175.088074,231.099030 175.042496,234.793900   C174.894867,246.759628 174.856461,258.730957 175.073639,270.694733   C175.156219,275.243622 174.628220,278.985687 169.218018,280.176971   C170.461380,280.974213 171.342789,281.539398 172.095078,282.827728   C177.167831,283.022308 182.240585,283.216888 188.008301,283.476898  M360.680908,228.704895   C361.787201,229.472504 362.893524,230.240112 363.954315,231.943207   C364.039917,241.354996 364.125549,250.766769 364.138000,261.010925   C363.793610,266.314148 363.449219,271.617371 362.931763,277.571075   C361.935303,278.536407 360.938812,279.501709 359.393951,280.356049   C359.029938,280.353882 358.665894,280.351685 357.879883,279.952911   C357.499115,279.941772 357.118347,279.930634 356.591888,279.602448   C356.422119,279.441528 356.246643,279.287140 356.140015,279.052551   C356.140015,279.052551 356.079559,278.955414 355.771301,278.298859   C350.499298,265.271881 345.524414,252.112259 339.798523,239.287949   C337.718689,234.629745 337.836212,228.411041 332.012054,225.160904   C327.718353,225.379837 324.648743,227.564529 322.892059,231.355301   C319.410278,238.868622 316.034515,246.434250 312.814331,254.062439   C312.278351,255.332123 312.750275,257.027283 312.511475,259.043976   C312.260712,259.729187 312.009949,260.414398 311.029053,260.534332   C306.697693,261.852020 307.536743,266.224670 305.880890,269.130066   C304.027710,272.381622 301.812408,275.426880 299.754242,278.561584   C299.204773,279.398438 298.653656,280.234192 298.103271,281.070435   C299.129242,281.318268 300.155243,281.566101 301.780243,282.188721   C302.853485,282.458466 303.926758,282.728210 304.851868,283.409485   C304.851868,283.409485 304.810608,283.844940 304.277649,284.336029   C306.579468,284.175110 308.881287,284.014191 311.115814,283.210938   C311.077606,281.797760 311.039429,280.384552 311.668793,278.870209   C311.720917,278.015259 311.773041,277.160339 311.825165,276.305389   C311.501495,276.505005 311.177826,276.704620 310.297180,276.581238   C310.198853,275.730530 310.100525,274.879852 310.805939,274.073456   C314.051788,273.364044 317.310577,272.706329 320.532837,271.902405   C321.192291,271.737885 321.714966,271.025208 322.861542,270.609558   C323.747467,270.593567 324.633392,270.577576 325.848755,271.169922   C330.897278,271.474365 335.945770,271.778809 340.964478,272.814606   C343.984375,277.605713 338.403961,277.692963 336.247070,280.229187   C334.297394,284.061249 334.402252,284.192993 340.817841,285.067352   C347.243042,284.989929 353.668274,284.912506 360.857941,284.911774   C362.542114,284.541107 364.226257,284.170441 366.841187,283.957581   C371.203247,283.957581 375.565308,283.957581 379.025879,283.957581   C378.257141,278.916687 377.477325,274.470093 376.930054,269.995056   C376.520844,266.648712 376.411530,263.265656 376.080048,259.069214   C376.091553,257.400055 376.103058,255.730896 376.708618,253.700211   C376.501740,252.450058 376.294861,251.199905 376.026215,249.053101   C376.355530,243.384079 376.684845,237.715057 377.723267,231.940155   C379.019562,231.453766 380.315857,230.967392 381.306610,230.595642   C379.194672,225.061508 374.536835,225.994339 370.184753,226.040192   C366.176086,226.082443 362.166656,226.049164 358.157593,226.049164   C358.161346,226.570465 358.165100,227.091782 358.168823,227.613083   C359.088776,227.762177 360.008728,227.911255 360.995514,228.025818   C360.995514,228.025818 360.920685,228.018204 360.680908,228.704895  M145.742081,231.043518   C147.818512,231.114700 149.894928,231.185898 152.354782,231.841995   C158.520340,233.223572 158.260056,238.484039 159.344116,243.694885   C160.559113,244.445679 161.774109,245.196457 163.206512,246.081573   C164.999893,243.269836 166.951431,240.703400 168.282074,237.847656   C168.728302,236.889999 167.592163,235.195023 167.088837,233.125122   C161.819733,227.110901 155.086441,225.614502 146.787567,226.774094   C143.857498,227.065750 140.927414,227.357422 137.586105,227.118881   C132.497009,228.193436 128.921661,231.100800 128.063583,236.294678   C126.788574,244.012253 128.639435,250.684814 136.207413,255.616379   C141.881561,261.587128 149.877808,261.105011 157.002701,263.006348   C157.002701,263.006348 156.915695,262.989105 157.115524,263.395721   C157.275833,263.698547 157.526718,263.836243 158.569000,264.224792   C161.122498,268.676392 160.564926,273.178802 156.234299,278.156006   C155.507843,278.999329 154.781387,279.842621 153.371918,280.667938   C152.696045,280.570465 152.020187,280.472992 150.517761,280.014862   C145.644882,279.909515 140.964005,279.328827 137.885544,274.096863   C136.298157,271.376404 138.833374,266.165314 132.970200,265.345032   C132.948746,265.179840 132.957397,265.002502 132.897003,264.853058   C132.841492,264.715759 132.711609,264.608521 132.614487,264.488037   C131.435745,265.915039 130.124741,267.253601 129.101074,268.784302   C124.581413,275.542603 125.684021,278.293335 134.299026,281.710663   C136.932755,282.798218 139.487167,284.446533 142.220062,284.833130   C145.729172,285.329559 149.381683,284.812317 153.753265,284.700378   C154.794785,284.717590 155.836319,284.734772 157.474243,284.953674   C157.608017,284.606140 157.741791,284.258636 158.316589,283.704712   C158.316589,283.704712 158.794342,283.610687 159.486023,283.930786   C165.894897,282.124695 169.452225,277.546783 170.666626,271.354248   C171.426880,267.477570 171.316223,263.328308 167.008499,260.257568   C163.218994,253.835495 157.063232,251.451752 150.177979,249.910690   C146.712677,249.135086 143.476883,247.334152 139.895584,245.500916   C139.592346,245.305817 139.289124,245.110718 139.005234,245.005127   C139.005234,245.005127 139.094803,244.986115 138.926346,244.192688   C136.983337,238.395187 137.970139,235.157440 143.613541,230.801895   C144.036789,230.797302 144.460022,230.792709 145.742081,231.043518  M276.360840,263.777924   C281.041077,264.191803 285.936310,263.884094 290.348175,265.198639   C296.114136,266.916595 297.022064,263.729614 298.177399,259.363251   C296.631775,259.169250 295.377716,259.011841 293.705780,258.238739   C293.005554,257.856049 292.313477,257.160217 291.603790,257.141815   C287.235840,257.028412 282.853546,257.250458 278.496368,257.002869   C274.504211,256.776031 272.112030,258.005890 271.992767,262.656525   C273.304504,262.837433 274.559265,263.010468 276.360840,263.777924  z"/>
<path fill="#575757" opacity="1.000000" stroke="none" d=" M336.999420,280.064178   C338.403961,277.692963 343.984375,277.605713 340.946716,272.117432   C340.530945,270.925323 340.132935,270.430359 339.807404,269.629272   C339.595306,268.824524 339.310730,268.325867 339.023682,267.622986   C339.021179,267.418732 339.008331,267.010406 338.977081,266.658752   C338.242462,265.822601 337.539062,265.338104 336.851013,264.472595   C333.910034,256.076508 330.953705,248.061432 327.975708,239.663956   C327.144623,236.938110 326.335175,234.594666 325.111725,231.052582   C324.157806,233.646729 323.680328,234.945160 323.073120,236.569855   C319.547729,244.106003 316.152100,251.315903 312.756470,258.525818   C312.750275,257.027283 312.278351,255.332123 312.814331,254.062439   C316.034515,246.434250 319.410278,238.868622 322.892059,231.355301   C324.648743,227.564529 327.718353,225.379837 331.974915,225.882111   C333.166748,229.845551 334.358459,233.102524 335.631409,236.327423   C340.624542,248.977386 345.592316,261.637909 350.698700,274.242157   C351.640564,276.567017 352.337433,279.625305 356.079559,278.955414   C356.079559,278.955414 356.140015,279.052551 356.375519,279.140076   C356.683075,279.397369 356.755157,279.567169 356.433075,279.994446   C352.295563,280.552307 348.552216,280.852722 344.397888,281.098755   C341.657715,280.717590 339.328583,280.390900 336.999420,280.064178  z"/>
<path fill="#555555" opacity="1.000000" stroke="none" d=" M172.224213,282.104614   C171.342789,281.539398 170.461380,280.974213 169.218018,280.176971   C174.628220,278.985687 175.156219,275.243622 175.073639,270.694733   C174.856461,258.730957 174.894867,246.759628 175.042496,234.793900   C175.088074,231.099030 174.586075,228.174164 169.913132,227.642029   C170.054413,227.108124 170.195694,226.574234 170.336975,226.040329   C172.965439,226.040329 175.593887,226.040329 178.847809,226.353790   C180.690063,227.765656 181.906860,228.864075 183.106018,230.433014   C183.072952,238.235443 183.057541,245.567337 183.029648,253.274384   C183.032990,254.150360 183.048782,254.651184 183.077652,255.610977   C183.091095,262.704865 182.986069,269.342926 183.181259,275.972107   C183.220093,277.290680 184.388840,279.688263 185.069580,279.700165   C190.643021,279.797699 196.224289,279.447784 201.803177,279.233795   C206.844452,276.942169 210.901688,273.708740 212.790283,268.221680   C212.997314,267.620148 214.169281,267.350708 214.893677,266.927216   C215.324921,267.771393 215.756165,268.615601 215.775665,269.985901   C214.528000,274.283966 213.692078,278.055908 212.493057,281.835815   C210.696594,281.598907 209.263260,281.354034 207.374313,281.071930   C200.344727,281.073517 193.770752,281.112335 186.728241,281.091492   C181.581207,281.389404 176.902710,281.747009 172.224213,282.104614  z"/>
<path fill="#555555" opacity="1.000000" stroke="none" d=" M135.821793,255.019989   C128.639435,250.684814 126.788574,244.012253 128.063583,236.294678   C128.921661,231.100800 132.497009,228.193436 137.743256,227.733246   C136.648270,230.180054 135.396118,232.012497 134.070511,234.275818   C134.083618,238.932938 133.436508,243.522995 139.094803,244.986115   C139.094803,244.986115 139.005234,245.005127 139.112976,245.208984   C139.526245,245.607529 139.831772,245.802185 140.137299,245.996857   C143.476883,247.334152 146.712677,249.135086 150.177979,249.910690   C157.063232,251.451752 163.218994,253.835495 167.003632,261.055359   C165.979950,266.342468 164.961151,270.831757 163.645508,275.409729   C161.690216,276.720978 160.031754,277.943573 158.068604,279.003540   C157.472397,278.489899 157.180893,278.138885 156.889374,277.787903   C160.564926,273.178802 161.122498,268.676392 158.103546,263.836670   C157.415878,263.266205 157.175079,263.113068 156.915695,262.989105   C156.915695,262.989105 157.002701,263.006348 156.945587,262.692688   C149.866257,259.926025 142.844025,257.473022 135.821793,255.019989  z"/>
<path fill="#545354" opacity="1.000000" stroke="none" d=" M218.860596,280.259796   C220.263229,277.307068 222.732361,274.405090 222.875809,271.392395   C223.379669,260.811188 223.080124,250.191849 223.092178,239.586990   C223.100952,231.876877 223.105621,231.876877 217.821228,226.736023   C222.791168,225.784317 227.141922,225.061981 231.630737,228.350159   C231.591507,236.284149 231.444000,243.652420 230.932571,250.995346   C230.638138,255.222839 232.187317,256.809998 236.496536,255.945175   C236.696991,255.926682 237.069321,256.079865 237.220947,256.319122   C237.913773,256.721222 238.454987,256.884064 238.997253,257.290527   C238.998306,257.534119 239.000732,258.021332 238.588516,258.064606   C235.923157,258.501831 233.670013,258.895752 230.610992,259.430603   C232.434357,266.697235 228.253723,274.262939 233.267609,280.186981   C230.693497,281.038574 227.888336,281.966644 225.083160,282.894653   C223.227417,282.987579 221.371674,283.080505 219.174194,282.647156   C218.841843,281.500549 218.851227,280.880157 218.860596,280.259796  z"/>
<path fill="#555555" opacity="1.000000" stroke="none" d=" M359.942352,280.467041   C360.938812,279.501709 361.935303,278.536407 363.358826,277.065430   C363.927643,271.099365 364.069397,265.638977 364.211182,260.178558   C364.125549,250.766769 364.039917,241.354996 363.902771,231.141785   C362.874390,229.566315 361.897522,228.792252 360.920685,228.018204   C360.920685,228.018204 360.995514,228.025818 361.226685,227.708221   C365.366364,227.222961 369.277039,226.922623 373.181763,226.986404   C374.090820,227.001251 374.979645,228.254517 375.539917,228.934662   C372.012878,228.047424 372.041321,230.219666 372.039337,232.299240   C372.025848,246.409409 371.941498,260.520782 372.142822,274.628021   C372.165222,276.197784 373.840179,277.744019 374.916779,279.572266   C372.344116,280.275177 369.603424,280.706970 366.430115,281.069397   C363.979095,280.822357 361.960724,280.644684 359.942352,280.467041  z"/>
<path fill="#575757" opacity="1.000000" stroke="none" d=" M239.000732,258.021332   C239.000732,258.021332 238.998306,257.534119 239.351624,257.269409   C240.178253,256.999542 240.651535,256.994385 241.545853,256.948547   C245.296631,256.893463 248.626404,256.879089 251.968719,257.107391   C251.981293,257.350037 252.002808,257.835510 251.735870,257.993927   C250.368652,262.078003 253.627579,263.172546 255.869232,264.927795   C260.206940,269.756287 264.544617,274.584747 268.652710,280.071442   C264.706146,280.867950 260.989136,281.006256 257.272156,281.144531   C252.694092,275.175751 248.116013,269.206970 243.262192,262.716125   C241.657867,260.803162 240.329300,259.412262 239.000732,258.021332  z"/>
<path fill="#555555" opacity="1.000000" stroke="none" d=" M252.002808,257.835510   C252.002808,257.835510 251.981293,257.350037 252.020355,256.755676   C252.890396,254.768387 253.706421,253.366302 254.554993,251.984222   C257.987823,246.392975 256.225281,236.336121 250.904404,231.791763   C250.144806,230.373505 249.538696,229.244308 248.932571,228.115112   C254.252686,227.363052 259.045532,228.128952 262.784058,233.376923   C267.216583,246.437561 262.211487,251.146683 252.002808,257.835510  z"/>
<path fill="#8D8B8D" opacity="1.000000" stroke="none" d=" M248.472717,228.057419   C249.538696,229.244308 250.144806,230.373505 250.674347,232.100433   C245.817932,232.435028 241.038116,232.171875 236.568588,231.925827   C235.989349,238.380753 235.322357,243.898483 235.083649,249.434692   C234.990738,251.589584 235.863312,253.786102 236.296082,255.963669   C232.187317,256.809998 230.638138,255.222839 230.932571,250.995346   C231.444000,243.652420 231.591507,236.284149 231.981964,228.523804   C237.385818,228.080658 242.699341,228.040192 248.472717,228.057419  z"/>
<path fill="#8A898A" opacity="1.000000" stroke="none" d=" M374.748749,279.301147   C373.840179,277.744019 372.165222,276.197784 372.142822,274.628021   C371.941498,260.520782 372.025848,246.409409 372.039337,232.299240   C372.041321,230.219666 372.012878,228.047424 375.820801,229.147705   C376.631073,230.258057 376.822632,231.152039 377.014160,232.046036   C376.684845,237.715057 376.355530,243.384079 375.792480,249.724792   C375.744019,251.618225 375.929291,252.839981 376.114563,254.061737   C376.103058,255.730896 376.091553,257.400055 375.804657,259.770874   C375.269104,266.748749 375.008911,273.024963 374.748749,279.301147  z"/>
<path fill="#8A898A" opacity="1.000000" stroke="none" d=" M201.354553,279.164001   C196.224289,279.447784 190.643021,279.797699 185.069580,279.700165   C184.388840,279.688263 183.220093,277.290680 183.181259,275.972107   C182.986069,269.342926 183.091095,262.704865 183.437347,255.546295   C184.856308,254.355225 185.928635,253.687805 186.979950,253.016037   C186.958908,253.011673 186.941833,253.052200 186.941833,253.052216   C190.274826,253.130844 193.607834,253.209488 197.415543,253.702881   C198.534760,254.591858 199.232513,255.009598 199.810547,255.554367   C200.567413,256.267700 201.229736,257.081329 201.932739,257.851807   C198.449646,257.923798 194.952087,258.221344 191.487869,257.999115   C188.516342,257.808472 187.033401,259.052795 186.962845,261.777588   C186.819870,267.299286 186.920151,272.827271 186.920151,279.094177   C191.753281,279.094177 196.329590,279.094177 201.354553,279.164001  z"/>
<path fill="#8A898A" opacity="1.000000" stroke="none" d=" M251.735870,257.993927   C262.211487,251.146683 267.216583,246.437561 263.092987,233.550751   C270.656281,239.070679 270.639862,249.894394 263.590485,256.301575   C260.938660,258.711823 256.053864,259.218903 255.931595,264.547333   C253.627579,263.172546 250.368652,262.078003 251.735870,257.993927  z"/>
<path fill="#848484" opacity="1.000000" stroke="none" d=" M355.925415,278.627136   C352.337433,279.625305 351.640564,276.567017 350.698700,274.242157   C345.592316,261.637909 340.624542,248.977386 335.631409,236.327423   C334.358459,233.102524 333.166748,229.845551 331.982239,226.210693   C337.836212,228.411041 337.718689,234.629745 339.798523,239.287949   C345.524414,252.112259 350.499298,265.271881 355.925415,278.627136  z"/>
<path fill="#8D8B8D" opacity="1.000000" stroke="none" d=" M238.588516,258.064606   C240.329300,259.412262 241.657867,260.803162 242.962494,262.544128   C240.804688,262.894165 238.670822,262.894165 236.483337,262.894165   C236.483337,269.695038 236.483337,276.065552 236.483337,282.986694   C233.229996,282.986694 229.611450,282.986694 225.538040,282.940674   C227.888336,281.966644 230.693497,281.038574 233.267609,280.186981   C228.253723,274.262939 232.434357,266.697235 230.610992,259.430603   C233.670013,258.895752 235.923157,258.501831 238.588516,258.064606  z"/>
<path fill="#575757" opacity="1.000000" stroke="none" d=" M137.840088,274.893768   C140.964005,279.328827 145.644882,279.909515 150.950073,280.585815   C149.652374,281.477203 147.922394,281.797668 145.756348,282.059296   C141.519089,281.695770 137.717865,281.391083 133.916656,281.086426   C125.684021,278.293335 124.581413,275.542603 129.101074,268.784302   C130.124741,267.253601 131.435745,265.915039 132.614487,264.488037   C132.711609,264.608521 132.841492,264.715759 132.897003,264.853058   C132.957397,265.002502 132.948746,265.179840 132.949158,266.079437   C132.612259,270.694519 133.887054,273.608246 137.840088,274.893768  z"/>
<path fill="#69696B" opacity="1.000000" stroke="none" d=" M301.181213,281.813904   C300.155243,281.566101 299.129242,281.318268 298.103271,281.070435   C298.653656,280.234192 299.204773,279.398438 299.754242,278.561584   C301.812408,275.426880 304.027710,272.381622 305.880890,269.130066   C307.536743,266.224670 306.697693,261.852020 311.506897,261.098083   C311.352692,262.906555 310.720642,264.151276 309.929993,265.708344   C311.161530,265.811798 312.086884,265.889557 312.998779,266.311340   C311.990936,269.113312 310.996552,271.571228 310.002197,274.029144   C310.100525,274.879852 310.198853,275.730530 310.630127,277.084473   C310.975769,278.048920 310.988495,278.510162 311.001221,278.971375   C311.039429,280.384552 311.077606,281.797760 310.694397,283.521729   C308.452179,283.836670 306.631378,283.840790 304.810608,283.844940   C304.810608,283.844940 304.851868,283.409485 304.966675,282.912231   C303.781372,282.214661 302.481293,282.014282 301.181213,281.813904  z"/>
<path fill="#69696B" opacity="1.000000" stroke="none" d=" M208.938309,226.096451   C213.163803,225.967392 214.003525,229.993515 215.589569,232.369843   C217.140488,234.693527 216.869995,238.232864 216.401001,241.829956   C212.118423,238.263443 207.835846,234.696945 203.205109,230.613876   C198.597107,229.363617 194.337265,228.629929 190.356598,227.591446   C192.415543,227.162323 194.194763,227.029678 195.975174,226.915329   C200.295914,226.637817 204.617233,226.368866 208.938309,226.096451  z"/>
<path fill="#575757" opacity="1.000000" stroke="none" d=" M159.128387,243.063232   C158.260056,238.484039 158.520340,233.223572 152.179214,231.190857   C151.283005,229.723419 150.562378,228.907150 149.553909,228.043152   C148.674850,227.588287 148.083603,227.181168 147.492371,226.774033   C155.086441,225.614502 161.819733,227.110901 166.766663,233.513641   C164.005798,236.955856 161.567093,240.009552 159.128387,243.063232  z"/>
<path fill="#F1F0F0" opacity="1.000000" stroke="none" d=" M313.012238,265.967285   C312.086884,265.889557 311.161530,265.811798 309.929993,265.708344   C310.720642,264.151276 311.352692,262.906555 311.871948,261.380737   C312.009949,260.414398 312.260712,259.729187 312.633972,258.784912   C316.152100,251.315903 319.547729,244.106003 323.410095,236.613846   C323.936768,237.909134 324.492554,239.677124 323.972168,241.031738   C321.513580,247.432220 318.760590,253.719620 316.019409,260.225739   C315.926300,260.404144 315.856567,260.800598 315.618774,261.036133   C314.591431,262.836853 313.801819,264.402069 313.012238,265.967285  z"/>
<path fill="#848484" opacity="1.000000" stroke="none" d=" M183.042114,252.899231   C183.057541,245.567337 183.072952,238.235443 183.483658,230.448654   C184.638824,229.970261 185.398682,229.946762 186.472229,229.957733   C187.191299,230.571777 187.596695,231.151352 188.002090,231.730927   C187.657593,238.522705 187.313095,245.314484 186.955215,252.579224   C186.941833,253.052200 186.958908,253.011673 186.583038,253.027557   C185.152145,252.995361 184.097137,252.947296 183.042114,252.899231  z"/>
<path fill="#848484" opacity="1.000000" stroke="none" d=" M163.942352,275.321075   C164.961151,270.831757 165.979950,266.342468 167.001114,261.409180   C171.316223,263.328308 171.426880,267.477570 170.666626,271.354248   C169.452225,277.546783 165.894897,282.124695 159.187836,283.440613   C160.573898,280.407288 162.258118,277.864197 163.942352,275.321075  z"/>
<path fill="#555555" opacity="1.000000" stroke="none" d=" M275.814026,263.183502   C274.559265,263.010468 273.304504,262.837433 271.992767,262.656525   C272.112030,258.005890 274.504211,256.776031 278.496368,257.002869   C282.853546,257.250458 287.235840,257.028412 291.603790,257.141815   C292.313477,257.160217 293.005554,257.856049 293.597870,258.758789   C291.425476,263.275665 288.049927,261.677887 284.825226,261.552643   C281.790253,261.434723 278.080170,258.750397 275.814026,263.183502  z"/>
<path fill="#8A898A" opacity="1.000000" stroke="none" d=" M276.087433,263.480713   C278.080170,258.750397 281.790253,261.434723 284.825226,261.552643   C288.049927,261.677887 291.425476,263.275665 293.806824,259.066650   C295.377716,259.011841 296.631775,259.169250 298.177399,259.363251   C297.022064,263.729614 296.114136,266.916595 290.348175,265.198639   C285.936310,263.884094 281.041077,264.191803 276.087433,263.480713  z"/>
<path fill="#9C9B9C" opacity="1.000000" stroke="none" d=" M374.916779,279.572266   C375.008911,273.024963 375.269104,266.748749 375.848969,260.185760   C376.411530,263.265656 376.520844,266.648712 376.930054,269.995056   C377.477325,274.470093 378.257141,278.916687 379.025879,283.957581   C375.565308,283.957581 371.203247,283.957581 366.378876,283.588470   C366.231934,282.525818 366.547333,281.832275 366.862732,281.138733   C369.603424,280.706970 372.344116,280.275177 374.916779,279.572266  z"/>
<path fill="#8D8B8D" opacity="1.000000" stroke="none" d=" M218.569992,280.002930   C218.851227,280.880157 218.841843,281.500549 218.845764,282.430847   C218.474213,282.820007 218.089355,282.899261 217.023483,282.999329   C215.180374,282.622711 214.018280,282.225311 212.856171,281.827881   C213.692078,278.055908 214.528000,274.283966 215.642944,270.291199   C217.134430,270.070374 218.346863,270.070374 219.907791,270.070374   C219.416718,272.988190 218.848053,276.367126 218.569992,280.002930  z"/>
<path fill="#8D8B8D" opacity="1.000000" stroke="none" d=" M344.808868,281.153168   C348.552216,280.852722 352.295563,280.552307 356.419678,280.043335   C356.800476,279.834747 356.737579,279.919525 356.737579,279.919525   C357.118347,279.930634 357.499115,279.941772 357.764038,280.341492   C358.463287,282.098419 359.278381,283.466766 360.093475,284.835114   C353.668274,284.912506 347.243042,284.989929 340.454834,284.627930   C341.664154,283.176727 343.236511,282.164948 344.808868,281.153168  z"/>
<path fill="#848484" opacity="1.000000" stroke="none" d=" M212.493073,281.835815   C214.018280,282.225311 215.180374,282.622711 216.730423,283.034332   C216.490494,283.902130 215.495987,285.582062 215.287811,285.489655   C208.097580,282.299591 200.753738,286.445160 193.569824,284.953186   C192.468506,284.724457 191.357132,284.543976 190.512787,283.676300   C196.460068,282.377319 202.144989,281.743256 207.829910,281.109161   C209.263260,281.354034 210.696594,281.598907 212.493073,281.835815  z"/>
<path fill="#E8E8E8" opacity="1.000000" stroke="none" d=" M163.645508,275.409729   C162.258118,277.864197 160.573898,280.407288 158.842010,283.280548   C158.794342,283.610687 158.316589,283.704712 157.832413,283.774872   C157.191437,284.147339 157.034637,284.449677 156.877838,284.751953   C155.836319,284.734772 154.794785,284.717590 153.167664,284.424194   C150.452164,283.471375 148.322281,282.794769 146.192398,282.118134   C147.922394,281.797668 149.652374,281.477203 151.363342,280.766144   C152.020187,280.472992 152.696045,280.570465 153.982574,280.793518   C155.853256,280.334808 157.113266,279.750488 158.373291,279.166199   C160.031754,277.943573 161.690216,276.720978 163.645508,275.409729  z"/>
<path fill="#848484" opacity="1.000000" stroke="none" d=" M159.236252,243.379059   C161.567093,240.009552 164.005798,236.955856 166.811890,233.869614   C167.592163,235.195023 168.728302,236.889999 168.282074,237.847656   C166.951431,240.703400 164.999893,243.269836 163.206512,246.081573   C161.774109,245.196457 160.559113,244.445679 159.236252,243.379059  z"/>
<path fill="#8A898A" opacity="1.000000" stroke="none" d=" M205.350830,249.084335   C205.402328,248.502731 205.453827,247.921112 205.942596,247.214218   C206.379868,247.088928 206.783890,247.109909 206.783890,247.109909   C210.574600,252.406693 211.528793,258.213379 210.472717,264.875458   C208.709579,263.494202 207.488480,262.537628 206.296967,261.113525   C206.001312,256.792145 205.676071,252.938248 205.350830,249.084335  z"/>
<path fill="#939192" opacity="1.000000" stroke="none" d=" M312.998779,266.311340   C313.801819,264.402069 314.591431,262.836853 315.819275,261.341095   C316.583923,261.774719 316.910309,262.138885 317.489655,262.687988   C317.838470,263.891663 317.934326,264.910400 318.072113,266.307220   C318.189301,266.927490 318.264557,267.169647 318.192505,267.383850   C318.045197,267.355927 318.056305,267.056274 317.674866,267.037598   C316.200470,267.398834 315.107544,267.778717 314.207794,268.488220   C317.034210,269.400299 319.667450,269.982758 322.300690,270.565186   C321.714966,271.025208 321.192291,271.737885 320.532837,271.902405   C317.310577,272.706329 314.051788,273.364044 310.404053,274.051300   C310.996552,271.571228 311.990936,269.113312 312.998779,266.311340  z"/>
<path fill="#848484" opacity="1.000000" stroke="none" d=" M136.014603,255.318176   C142.844025,257.473022 149.866257,259.926025 156.936783,262.736176   C149.877808,261.105011 141.881561,261.587128 136.014603,255.318176  z"/>
<path fill="#8D8B8D" opacity="1.000000" stroke="none" d=" M139.010574,244.589401   C133.436508,243.522995 134.083618,238.932938 134.407898,234.264496   C137.540207,232.842194 140.261688,231.862106 142.983170,230.882019   C137.970139,235.157440 136.983337,238.395187 139.010574,244.589401  z"/>
<path fill="#575757" opacity="1.000000" stroke="none" d=" M204.989761,249.153107   C205.676071,252.938248 206.001312,256.792145 206.099136,260.829529   C204.754486,260.063019 203.637238,259.113007 202.226379,258.007385   C201.229736,257.081329 200.567413,256.267700 199.810547,255.554367   C199.232513,255.009598 198.534760,254.591858 197.852081,253.803192   C200.085495,252.066483 202.357101,250.644180 204.989761,249.153107  z"/>
<path fill="#F1F0F0" opacity="1.000000" stroke="none" d=" M322.581116,270.587372   C319.667450,269.982758 317.034210,269.400299 314.583313,268.428589   C315.862549,267.711670 316.959412,267.383972 318.056305,267.056274   C318.056305,267.056274 318.045197,267.355927 318.494934,267.582825   C319.355896,267.359985 319.767059,266.910278 320.593048,266.451050   C322.943726,266.446503 324.879578,266.451447 326.771362,266.822906   C327.303345,267.145630 327.879456,267.101837 328.739258,267.413696   C332.357361,267.788635 335.691772,267.807922 339.026154,267.827209   C339.310730,268.325867 339.595306,268.824524 339.426147,269.517700   C334.488037,269.995331 330.003662,270.278442 325.519318,270.561584   C324.633392,270.577576 323.747467,270.593567 322.581116,270.587372  z"/>
<path fill="#939192" opacity="1.000000" stroke="none" d=" M257.377686,281.493591   C260.989136,281.006256 264.706146,280.867950 268.694794,280.426117   C270.467529,280.855591 271.968567,281.588593 273.469635,282.321594   C273.234894,282.946960 273.000183,283.572357 272.765472,284.197723   C267.749207,282.711609 262.162415,286.365204 257.377686,281.493591  z"/>
<path fill="#E8E8E8" opacity="1.000000" stroke="none" d=" M188.419342,231.694092   C187.596695,231.151352 187.191299,230.571777 186.482086,229.591156   C187.477966,228.758804 188.777679,228.327515 190.077408,227.896240   C194.337265,228.629929 198.597107,229.363617 202.868225,230.482971   C198.198517,231.131485 193.517563,231.394363 188.419342,231.694092  z"/>
<path fill="#848484" opacity="1.000000" stroke="none" d=" M145.756348,282.059296   C148.322281,282.794769 150.452164,283.471375 152.777222,284.439880   C149.381683,284.812317 145.729172,285.329559 142.220062,284.833130   C139.487167,284.446533 136.932755,282.798218 134.107849,281.398560   C137.717865,281.391083 141.519089,281.695770 145.756348,282.059296  z"/>
<path fill="#E8E8E8" opacity="1.000000" stroke="none" d=" M143.298355,230.841949   C140.261688,231.862106 137.540207,232.842194 134.481339,233.833618   C135.396118,232.012497 136.648270,230.180054 137.948883,227.998352   C140.927414,227.357422 143.857498,227.065750 147.139969,226.774063   C148.083603,227.181168 148.674850,227.588287 149.365662,228.337372   C147.937927,229.382248 146.410599,230.085190 144.883270,230.788116   C144.460022,230.792709 144.036789,230.797302 143.298355,230.841949  z"/>
<path fill="#939192" opacity="1.000000" stroke="none" d=" M190.356598,227.591446   C188.777679,228.327515 187.477966,228.758804 186.168396,229.556671   C185.398682,229.946762 184.638824,229.970261 183.501312,229.978119   C181.906860,228.864075 180.690063,227.765656 179.289429,226.392227   C188.104843,225.863068 197.103683,225.593079 206.103973,225.384750   C206.823929,225.368088 207.553757,225.776855 208.608643,226.042175   C204.617233,226.368866 200.295914,226.637817 195.975174,226.915329   C194.194763,227.029678 192.415543,227.162323 190.356598,227.591446  z"/>
<path fill="#939192" opacity="1.000000" stroke="none" d=" M377.368713,231.993103   C376.822632,231.152039 376.631073,230.258057 376.158661,229.151031   C374.979645,228.254517 374.090820,227.001251 373.181763,226.986404   C369.277039,226.922623 365.366364,227.222961 361.193268,227.725494   C360.008728,227.911255 359.088776,227.762177 358.168823,227.613083   C358.165100,227.091782 358.161346,226.570465 358.157593,226.049164   C362.166656,226.049164 366.176086,226.082443 370.184753,226.040192   C374.536835,225.994339 379.194672,225.061508 381.306610,230.595642   C380.315857,230.967392 379.019562,231.453766 377.368713,231.993103  z"/>
<path fill="#939192" opacity="1.000000" stroke="none" d=" M325.684021,270.865753   C330.003662,270.278442 334.488037,269.995331 339.353638,269.823792   C340.132935,270.430359 340.530945,270.925323 340.961639,271.751740   C335.945770,271.778809 330.897278,271.474365 325.684021,270.865753  z"/>
<path fill="#F1F0F0" opacity="1.000000" stroke="none" d=" M207.374313,281.071930   C202.144989,281.743256 196.460068,282.377319 190.438416,283.230682   C189.403885,283.458923 188.706085,283.467926 187.638214,283.156738   C187.244354,282.274780 187.220551,281.712952 187.196762,281.151154   C193.770752,281.112335 200.344727,281.073517 207.374313,281.071930  z"/>
<path fill="#848484" opacity="1.000000" stroke="none" d=" M186.728241,281.091492   C187.220551,281.712952 187.244354,282.274780 187.290741,283.124023   C182.240585,283.216888 177.167831,283.022308 172.159637,282.466187   C176.902710,281.747009 181.581207,281.389404 186.728241,281.091492  z"/>
<path fill="#848484" opacity="1.000000" stroke="none" d=" M364.174561,260.594727   C364.069397,265.638977 363.927643,271.099365 363.445374,276.740173   C363.449219,271.617371 363.793610,266.314148 364.174561,260.594727  z"/>
<path fill="#E8E8E8" opacity="1.000000" stroke="none" d=" M360.475708,284.873444   C359.278381,283.466766 358.463287,282.098419 357.975037,280.539795   C358.665894,280.351685 359.029938,280.353882 359.668152,280.411560   C361.960724,280.644684 363.979095,280.822357 366.430115,281.069397   C366.547333,281.832275 366.231934,282.525818 365.913513,283.509552   C364.226257,284.170441 362.542114,284.541107 360.475708,284.873444  z"/>
<path fill="#9C9B9C" opacity="1.000000" stroke="none" d=" M137.862823,274.495300   C133.887054,273.608246 132.612259,270.694519 132.964020,266.411926   C138.833374,266.165314 136.298157,271.376404 137.862823,274.495300  z"/>
<path fill="#E8E8E8" opacity="1.000000" stroke="none" d=" M344.397888,281.098755   C343.236511,282.164948 341.664154,283.176727 339.994446,284.501892   C334.402252,284.192993 334.297394,284.061249 336.623230,280.146667   C339.328583,280.390900 341.657715,280.717590 344.397888,281.098755  z"/>
<path fill="#8D8B8D" opacity="1.000000" stroke="none" d=" M145.312683,230.915833   C146.410599,230.085190 147.937927,229.382248 149.653503,228.385086   C150.562378,228.907150 151.283005,229.723419 151.987503,230.898392   C149.894928,231.185898 147.818512,231.114700 145.312683,230.915833  z"/>
<path fill="#E8E8E8" opacity="1.000000" stroke="none" d=" M301.480713,282.001312   C302.481293,282.014282 303.781372,282.214661 305.040710,282.706482   C303.926758,282.728210 302.853485,282.458466 301.480713,282.001312  z"/>
<path fill="#9C9B9C" opacity="1.000000" stroke="none" d=" M304.544128,284.090485   C306.631378,283.840790 308.452179,283.836670 310.728027,283.842896   C308.881287,284.014191 306.579468,284.175110 304.544128,284.090485  z"/>
<path fill="#9C9B9C" opacity="1.000000" stroke="none" d=" M376.411560,253.880981   C375.929291,252.839981 375.744019,251.618225 375.823395,250.173111   C376.294861,251.199905 376.501740,252.450058 376.411560,253.880981  z"/>
<path fill="#939192" opacity="1.000000" stroke="none" d=" M360.800781,228.361542   C361.897522,228.792252 362.874390,229.566315 363.925537,230.674042   C362.893524,230.240112 361.787201,229.472504 360.800781,228.361542  z"/>
<path fill="#575757" opacity="1.000000" stroke="none" d=" M158.068604,279.003540   C157.113266,279.750488 155.853256,280.334808 154.324097,280.802551   C154.781387,279.842621 155.507843,278.999329 156.561829,277.971954   C157.180893,278.138885 157.472397,278.489899 158.068604,279.003540  z"/>
<path fill="#F1F0F0" opacity="1.000000" stroke="none" d=" M311.335022,278.920776   C310.988495,278.510162 310.975769,278.048920 310.908630,277.245972   C311.177826,276.704620 311.501495,276.505005 311.825165,276.305389   C311.773041,277.160339 311.720917,278.015259 311.335022,278.920776  z"/>
<path fill="#E8E8E8" opacity="1.000000" stroke="none" d=" M356.664734,279.760986   C356.737579,279.919525 356.800476,279.834747 356.813843,279.785858   C356.755157,279.567169 356.683075,279.397369 356.338226,279.183441   C356.246643,279.287140 356.422119,279.441528 356.664734,279.760986  z"/>
<path fill="#8D8B8D" opacity="1.000000" stroke="none" d=" M140.016449,245.748886   C139.831772,245.802185 139.526245,245.607529 139.103302,245.164246   C139.289124,245.110718 139.592346,245.305817 140.016449,245.748886  z"/>
<path fill="#848484" opacity="1.000000" stroke="none" d=" M157.015610,263.192413   C157.175079,263.113068 157.415878,263.266205 157.753143,263.628662   C157.526718,263.836243 157.275833,263.698547 157.015610,263.192413  z"/>
<path fill="#848484" opacity="1.000000" stroke="none" d=" M157.176041,284.852844   C157.034637,284.449677 157.191437,284.147339 157.611908,283.878052   C157.741791,284.258636 157.608017,284.606140 157.176041,284.852844  z"/>
<path fill="#575757" opacity="1.000000" stroke="none" d=" M206.822037,246.869217   C206.783890,247.109909 206.379868,247.088928 206.183777,247.039169   C206.278519,246.869125 206.569351,246.748825 206.822037,246.869217  z"/>
<path fill="#000000" opacity="1.000000" stroke="none" d=" M326.815460,266.456360   C324.879578,266.451447 322.943726,266.446503 320.266052,266.266022   C319.026245,266.036682 318.528198,265.982910 318.030182,265.929138   C317.934326,264.910400 317.838470,263.891663 317.490479,262.654419   C317.238342,262.435913 317.288177,262.414581 317.608276,262.146942   C321.284729,254.601654 324.641022,247.324005 327.997345,240.046356   C330.953705,248.061432 333.910034,256.076508 336.450317,264.559021   C332.961365,265.503143 329.888397,265.979767 326.815460,266.456360  z"/>
<path fill="#939192" opacity="1.000000" stroke="none" d=" M327.975708,239.663956   C324.641022,247.324005 321.284729,254.601654 317.515808,261.695496   C316.772980,261.023590 316.442749,260.535461 316.112549,260.047333   C318.760590,253.719620 321.513580,247.432220 323.972168,241.031738   C324.492554,239.677124 323.936768,237.909134 323.539856,236.287598   C323.680328,234.945160 324.157806,233.646729 325.111725,231.052582   C326.335175,234.594666 327.144623,236.938110 327.975708,239.663956  z"/>
<path fill="#848484" opacity="1.000000" stroke="none" d=" M326.771362,266.822937   C329.888397,265.979767 332.961365,265.503143 336.434998,264.940063   C337.539062,265.338104 338.242462,265.822601 338.508301,266.663818   C334.865723,267.033051 331.660614,267.045532 328.455536,267.058014   C327.879456,267.101837 327.303345,267.145630 326.771362,266.822937  z"/>
<path fill="#69696B" opacity="1.000000" stroke="none" d=" M328.739258,267.413696   C331.660614,267.045532 334.865723,267.033051 338.539551,267.015503   C339.008331,267.010406 339.021179,267.418732 339.023682,267.622986   C335.691772,267.807922 332.357361,267.788635 328.739258,267.413696  z"/>
<path fill="#575757" opacity="1.000000" stroke="none" d=" M183.029663,253.274384   C184.097137,252.947296 185.152145,252.995361 186.604065,253.031921   C185.928635,253.687805 184.856308,254.355225 183.424286,255.087311   C183.048782,254.651184 183.032990,254.150360 183.029663,253.274384  z"/>
<path fill="#000000" opacity="1.000000" stroke="none" d=" M236.496552,255.945175   C235.863312,253.786102 234.990738,251.589584 235.083649,249.434692   C235.322357,243.898483 235.989349,238.380753 236.568588,231.925827   C241.038116,232.171875 245.817932,232.435028 250.827820,232.389496   C256.225281,236.336121 257.987823,246.392975 254.554993,251.984222   C253.706421,253.366302 252.890396,254.768387 252.007782,256.513000   C248.626404,256.879089 245.296631,256.893463 241.342438,256.639893   C239.501770,256.274567 238.285538,256.177216 237.069321,256.079865   C237.069321,256.079865 236.696991,255.926682 236.496552,255.945175  z"/>
<path fill="#8D8B8D" opacity="1.000000" stroke="none" d=" M237.220947,256.319122   C238.285538,256.177216 239.501770,256.274567 240.921417,256.680603   C240.651535,256.994385 240.178253,256.999542 239.350586,257.025787   C238.454987,256.884064 237.913773,256.721222 237.220947,256.319122  z"/>
<path fill="#848484" opacity="1.000000" stroke="none" d=" M316.019409,260.225739   C316.442749,260.535461 316.772980,261.023590 317.195679,261.963135   C317.288177,262.414581 317.238342,262.435913 317.237518,262.469482   C316.910309,262.138885 316.583923,261.774719 316.057037,261.105591   C315.856567,260.800598 315.926300,260.404144 316.019409,260.225739  z"/>
<path fill="#69696B" opacity="1.000000" stroke="none" d=" M317.674866,267.037598   C316.959412,267.383972 315.862549,267.711670 314.390137,268.098938   C315.107544,267.778717 316.200470,267.398834 317.674866,267.037598  z"/>
<path fill="#848484" opacity="1.000000" stroke="none" d=" M318.072113,266.307220   C318.528198,265.982910 319.026245,266.036682 319.851257,266.275513   C319.767059,266.910278 319.355896,267.359985 318.642273,267.610748   C318.264557,267.169647 318.189301,266.927490 318.072113,266.307220  z"/>
</svg>
